<?xml version="1.0" encoding="utf-8"?>
<svg version="1.1" id="svg2" width="666.66669" height="666.66669" viewBox="0 0 666.66669 666.66669" xmlns="http://www.w3.org/2000/svg">
  <defs id="defs6">
    <clipPath clipPathUnits="userSpaceOnUse" id="clipPath20">
      <path d="M 0,500 H 500 V 0 H 0 Z" id="path18"/>
    </clipPath>
    <clipPath clipPathUnits="userSpaceOnUse" id="clipPath32">
      <path d="M 0,500 H 500 V 0 H 0 Z" id="path30"/>
    </clipPath>
    <clipPath clipPathUnits="userSpaceOnUse" id="clipPath54">
      <path d="M 0,500 H 500 V 0 H 0 Z" id="path52"/>
    </clipPath>
    <clipPath clipPathUnits="userSpaceOnUse" id="clipPath142">
      <path d="M 188.514,221.257 H 316.586 V 78.9946 H 188.514 Z" id="path140"/>
    </clipPath>
  </defs>
  <path d="M 0 666.667 L 666.667 666.667 L 666.667 512.747 L 0 512.747 L 0 666.667 Z" style="fill:#3d37c7;fill-opacity:1;fill-rule:nonzero;stroke:none" id="path12"/>
  <g id="g14" transform="matrix(1.333333, 0, 0, -1.333333, 0, 666.666687)">
    <g id="g16" clip-path="url(#clipPath20)">
      <g id="g22" transform="translate(403.0133,305.78)">
        <path d="m 0,0 c 0,-84.507 -68.506,-153.013 -153.013,-153.013 -84.507,0 -153.014,68.506 -153.014,153.013 0,84.507 68.507,153.013 153.014,153.013 C -68.506,153.013 0,84.507 0,0" style="fill:#605cd0;fill-opacity:1;fill-rule:nonzero;stroke:none" id="path24"/>
      </g>
    </g>
  </g>
  <g id="g26" transform="matrix(1.333333, 0, 0, -1.333333, 6.539059, 657.853943)">
    <g id="g28" clip-path="url(#clipPath32)">
      <g id="g34" transform="translate(153.3098,311.6737)">
        <path d="m 0,0 c 0,-19.066 -22.953,-34.522 -51.266,-34.522 -28.314,0 -51.267,15.456 -51.267,34.522 0,19.066 22.953,34.522 51.267,34.522 C -22.953,34.522 0,19.066 0,0" style="fill:#00d7d4;fill-opacity:1;fill-rule:nonzero;stroke:none" id="path36"/>
      </g>
      <g id="g38" transform="translate(164.5481,312.6962)">
        <path d="M 0,0 -18.345,-16.544 -19.17,-3.981 Z" style="fill:#00d7d4;fill-opacity:1;fill-rule:nonzero;stroke:none" id="path40"/>
      </g>
    </g>
  </g>
  <g aria-label="Salam&#10;Alaikum" transform="matrix(1.333333, 0, 0, 1.333333, 101.822929, 245.362717)" id="text46" style="font-weight:bold;font-size:17.0907px;font-family:'Balsamiq Sans';-inkscape-font-specification:BalsamiqSans-Bold;fill:#ffffff"/>
  <g id="g48" transform="matrix(1.333333, 0, 0, -1.333333, 0, 666.666687)">
    <g id="g50" clip-path="url(#clipPath54)">
      <g id="g56" transform="translate(396.6012,332.9106)">
        <path d="m 0,0 -11.499,5.975 c -1.274,0.662 -1.77,2.231 -1.108,3.505 0.662,1.274 2.231,1.77 3.505,1.109 L 2.397,4.613 C 3.671,3.951 4.167,2.382 3.505,1.108 2.843,-0.166 1.274,-0.662 0,0" style="fill:#ff61ac;fill-opacity:1;fill-rule:nonzero;stroke:none" id="path58"/>
      </g>
      <g id="g60" transform="translate(400.5291,350.1146)">
        <path d="m 0,0 -12.946,-0.575 c -1.434,-0.064 -2.649,1.048 -2.712,2.482 -0.064,1.434 1.047,2.648 2.481,2.712 L -0.231,5.194 C 1.204,5.257 2.418,4.146 2.482,2.712 2.545,1.278 1.434,0.064 0,0" style="fill:#ff61ac;fill-opacity:1;fill-rule:nonzero;stroke:none" id="path62"/>
      </g>
      <g id="g64" transform="translate(387.1781,324.421)">
        <path d="m 0,0 -6.971,10.924 c -0.772,1.21 -2.379,1.566 -3.59,0.793 -1.21,-0.772 -1.565,-2.379 -0.793,-3.589 l 6.971,-10.925 c 0.773,-1.21 2.38,-1.565 3.59,-0.793 C 0.417,-2.817 0.772,-1.21 0,0" style="fill:#ff61ac;fill-opacity:1;fill-rule:nonzero;stroke:none" id="path66"/>
      </g>
      <g id="g68" transform="translate(383.1263,46.6868)">
        <path d="m 0,0 c 0,-11.453 -57.1,-20.737 -127.536,-20.737 -70.436,0 -127.536,9.284 -127.536,20.737 0,11.452 57.1,20.737 127.536,20.737 C -57.1,20.737 0,11.452 0,0" style="fill:#332eaa;fill-opacity:1;fill-rule:nonzero;stroke:none" id="path70"/>
      </g>
      <g id="g72" transform="translate(237.12,97.93)">
        <path d="m 0,0 v -28.55 c 0,0 -16.99,-6.11 -30.58,0 V 0 Z" style="fill:#ffb3e2;fill-opacity:1;fill-rule:nonzero;stroke:none" id="path74"/>
      </g>
      <g id="g76" transform="translate(237.1198,69.3856)">
        <path d="m 0,0 v -24.465 h -45.882 c -5.54,0 -9.623,5.405 -7.861,10.657 0.026,0.076 0.052,0.152 0.079,0.229 0.708,1.994 2.236,3.596 4.145,4.51 L -30.582,0 c 0,0 15.443,-5.553 30.582,0" style="fill:#f83582;fill-opacity:1;fill-rule:nonzero;stroke:none" id="path78"/>
      </g>
      <g id="g80" transform="translate(237.1198,44.9203)">
        <path d="M 0,0 V 14.595 C 0,14.595 -6.489,0.988 -40.557,0 Z" style="fill:#e13076;fill-opacity:1;fill-rule:nonzero;stroke:none" id="path82"/>
      </g>
      <g id="g84" transform="translate(302.7,97.93)">
        <path d="m 0,0 v -28.55 c -13.6,-6.11 -30.58,0 -30.58,0 V 0 Z" style="fill:#ffb3e2;fill-opacity:1;fill-rule:nonzero;stroke:none" id="path86"/>
      </g>
      <g id="g88" transform="translate(272.1188,69.3856)">
        <path d="m 0,0 v -24.465 h 45.882 c 5.54,0 9.623,5.405 7.861,10.657 -0.026,0.076 -0.052,0.152 -0.079,0.229 -0.708,1.994 -2.237,3.596 -4.145,4.51 L 30.581,0 C 30.581,0 15.139,-5.553 0,0" style="fill:#f83582;fill-opacity:1;fill-rule:nonzero;stroke:none" id="path90"/>
      </g>
      <g id="g92" transform="translate(272.1188,44.9203)">
        <path d="M 0,0 V 14.595 C 0,14.595 6.489,0.988 40.557,0 Z" style="fill:#e13076;fill-opacity:1;fill-rule:nonzero;stroke:none" id="path94"/>
      </g>
      <g id="g96" transform="translate(206.54,97.93)">
        <path d="m 0,0 h 30.58 v -22.24 c -1.67,0.53 -2.93,1 -3.71,1.32 -4.53,-0.78 -8.96,-1.18 -13.18,-1.18 -5.23,0 -9.78,0.59 -13.69,1.5 z" style="fill:#ff61ac;fill-opacity:1;fill-rule:nonzero;stroke:none" id="path98"/>
      </g>
      <g id="g100" transform="translate(302.7,97.93)">
        <path d="m 0,0 v -19.85 c -5.54,-1.88 -11.03,-2.43 -15.54,-2.43 -4.45,0 -7.92,0.53 -9.5,0.82 -1.82,-0.66 -3.67,-1.24 -5.54,-1.72 V 0 Z" style="fill:#ff61ac;fill-opacity:1;fill-rule:nonzero;stroke:none" id="path102"/>
      </g>
      <g id="g104" transform="translate(338.998,380.7053)">
        <path d="m 0,0 c 1.79,-4.975 4.957,-14.335 4.957,-14.335 -0.181,-0.975 -0.207,-1.9 -0.11,-2.762 0.062,-0.603 0.169,-1.185 0.339,-1.731 1.204,-4.072 4.769,-6.399 4.769,-6.399 l 9.231,-5.617 c 4.705,-1.514 8.488,-1.183 11.471,-0.024 1.093,0.438 2.088,0.975 2.963,1.584 4.416,3.015 6.253,7.631 6.253,7.631 l 11.771,9.555 c 2.447,1.932 2.837,5.546 0.757,7.865 -0.034,0.038 -0.058,0.072 -0.086,0.095 -1.875,2.054 -5.052,2.239 -7.268,0.55 l -8.779,-6.973 11.596,17.522 c 1.694,2.691 1.128,6.281 -1.399,8.207 -0.049,0.032 -0.095,0.074 -0.133,0.101 -2.95,2.2 -7.171,1.214 -9.015,-1.96 L 26.89,-3.608 32.411,14.716 c 1.045,3.336 -0.851,6.986 -4.246,7.846 -0.148,0.032 -0.291,0.076 -0.438,0.108 -3.149,0.702 -6.315,-1.086 -7.314,-4.144 L 13.12,-4.502 C 12.574,-2.543 11.451,2.309 10.686,4.082 9.178,7.594 4.722,8.827 1.749,6.423 1.715,6.399 1.677,6.364 1.643,6.34 -0.192,4.811 -0.805,2.243 0,0" style="fill:#ffb3e2;fill-opacity:1;fill-rule:nonzero;stroke:none" id="path106"/>
      </g>
      <g id="g108" transform="translate(352.1191,376.1972)">
        <path d="m 0,0 1.035,-2.99 c 0,0 6.452,-1.979 7.749,-8.844 0.121,-0.641 0.785,-1.026 1.404,-0.818 0.515,0.173 0.822,0.694 0.722,1.228 -0.383,2.066 -1.922,7.014 -7.995,9.665 L 1.113,3.406 Z" style="fill:#ff8ec7;fill-opacity:1;fill-rule:nonzero;stroke:none" id="path110"/>
      </g>
      <g id="g112" transform="translate(330.8128,333.9246)">
        <path d="m 0,0 27.207,-11.655 11.635,27.567 1.01,2.513 -24.354,10.857 -1.281,0.57 -0.149,-0.323 -0.697,-1.576 z" style="fill:#ffb3e2;fill-opacity:1;fill-rule:nonzero;stroke:none" id="path114"/>
      </g>
      <g id="g116" transform="translate(328.9443,327.8264)">
        <path d="M 0,0 27.208,-11.655 40.711,22.01 c 1.092,0.439 2.088,0.976 2.963,1.585 -3.95,3.018 -13.492,9.42 -26.308,11.786 -0.467,0.095 -0.943,0.168 -1.43,0.246 -0.335,0.056 -0.685,0.105 -1.035,0.155 0.062,-0.603 0.169,-1.185 0.339,-1.731 z" style="fill:#ff61ac;fill-opacity:1;fill-rule:nonzero;stroke:none" id="path118"/>
      </g>
      <g id="g120" transform="translate(290.7801,312.5044)">
        <path d="m 0,0 30.119,13.872 16.546,34.64 c 0,0 16.844,2.217 35.458,-14.749 L 62.564,-8.915 c -1.327,-2.675 -2.994,-5.176 -5.029,-7.362 -0.042,-0.044 -0.083,-0.089 -0.125,-0.133 -2.704,-2.876 -5.968,-5.173 -9.539,-6.853 L 6.521,-47.435 Z" style="fill:#ffffff;fill-opacity:1;fill-rule:nonzero;stroke:none" id="path122"/>
      </g>
      <g id="g124" transform="translate(320.8987,326.3766)">
        <path d="m 0,0 5.186,-7.088 c 0.305,-0.418 0.893,-0.505 1.306,-0.195 0.409,0.306 0.493,0.885 0.19,1.296 L 0.925,1.788 Z" style="fill:#a7bfff;fill-opacity:1;fill-rule:nonzero;stroke:none" id="path126"/>
      </g>
      <g id="g128" transform="translate(190.3616,222.9344)">
        <path d="m 0,0 -34.965,-121.783 c 0,0 12.314,-12.082 34.965,-12.805 0,0 13.585,-13.686 43.401,-8.228 0,0 20.357,-9.42 43.646,-0.535 0,0 23.012,-5.353 37.625,9.579 0,0 21.091,-2.785 32.155,13.564 L 117.693,6.972 C 117.693,6.972 78.853,-23.904 0,0" style="fill:#160460;fill-opacity:1;fill-rule:nonzero;stroke:none" id="path130"/>
      </g>
      <g id="g132" transform="translate(344.6441,110.9862)">
        <path d="m 0,0 c -53.701,-20.334 -93.059,-17.996 -120.789,-8.196 -34.762,12.285 -53.688,49.809 -43.513,85.247 l 10.019,34.896 c 78.85,-23.907 117.698,6.976 117.698,6.976 z" style="fill:#1b0671;fill-opacity:1;fill-rule:nonzero;stroke:none" id="path134"/>
      </g>
      <g id="g136">
        <g id="g138"/>
        <g id="g162">
          <g clip-path="url(#clipPath142)" opacity="0.300003" id="g160">
            <g transform="translate(212.5671,217.3762)" id="g146">
              <path d="m 0,0 -24.053,-128.941 c 0.609,-0.037 1.223,-0.069 1.848,-0.089 0,0 0.338,-0.34 1.021,-0.89 L 2.948,-0.557 C 1.973,-0.381 0.99,-0.194 0,0" style="fill:#332eaa;fill-opacity:1;fill-rule:nonzero;stroke:none" id="path144"/>
            </g>
            <g transform="translate(231.881,79.8058)" id="g150">
              <path d="m 0,0 c 0.623,0.1 1.243,0.196 1.882,0.313 0,0 0.394,-0.181 1.114,-0.464 l 7.681,134.272 c -0.989,0.028 -1.987,0.064 -2.999,0.111 z" style="fill:#332eaa;fill-opacity:1;fill-rule:nonzero;stroke:none" id="path148"/>
            </g>
            <g transform="translate(275.768,78.9946)" id="g154">
              <path d="m 0,0 c 0.546,0.189 1.091,0.379 1.64,0.589 0,0 0.488,-0.112 1.343,-0.257 l -11.166,135.98 c -0.977,-0.142 -1.966,-0.279 -2.978,-0.403 z" style="fill:#332eaa;fill-opacity:1;fill-rule:nonzero;stroke:none" id="path152"/>
            </g>
            <g transform="translate(291.228,221.2571)" id="g158">
              <path d="m 0,0 c -0.916,-0.343 -1.869,-0.684 -2.86,-1.022 l 25.376,-132.313 c 0.436,0.398 0.867,0.809 1.289,1.241 0,0 0.568,-0.074 1.553,-0.127 z" style="fill:#332eaa;fill-opacity:1;fill-rule:nonzero;stroke:none" id="path156"/>
            </g>
          </g>
        </g>
      </g>
      <g id="g164" transform="translate(308.0588,229.9088)">
        <path d="m 0,0 c -4.878,-4.43 -11.818,-7.883 -18.735,-10.486 -14.044,-5.279 -29.079,-7.424 -44.079,-6.858 -32.85,1.225 -54.883,10.369 -54.883,10.369 l 3.44,24.06 9.344,65.347 87.64,2.297 15.211,-74.608 z" style="fill:#fff0ff;fill-opacity:1;fill-rule:nonzero;stroke:none" id="path166"/>
      </g>
      <g id="g168" transform="translate(305.9969,240.0302)">
        <path d="m 0,0 c -13.161,-10.227 -31.743,-16.59 -52.315,-16.59 -10.857,0 -21.154,1.773 -30.393,4.95 -17.848,6.137 -28.677,24.264 -26.006,42.948 l 5.863,41.002 87.64,2.298 z" style="fill:#ffffff;fill-opacity:1;fill-rule:nonzero;stroke:none" id="path170"/>
      </g>
      <g id="g172" transform="translate(180.2307,234.3423)">
        <path d="m 0,0 -14.94,-37.95 -0.95,-2.4 c -16.96,-1.08 -26.36,9.67 -26.36,9.67 l 1.06,3.14 13.24,39.18 C -21.45,10.04 -11.55,6.75 0,0" style="fill:#ffb3e2;fill-opacity:1;fill-rule:nonzero;stroke:none" id="path174"/>
      </g>
      <g id="g176" transform="translate(139.7752,174.5007)">
        <path d="m 0,0 1.002,-17.979 c 0.163,-2.919 -2.051,-5.482 -4.972,-5.619 -0.048,-0.002 -0.097,-0.004 -0.146,-0.006 -2.931,-0.093 -5.361,2.267 -5.436,5.199 l -0.435,17.073 z" style="fill:#ff61ac;fill-opacity:1;fill-rule:nonzero;stroke:none" id="path178"/>
      </g>
      <g id="g180" transform="translate(139.9794,152.7539)">
        <path d="M 0,0 C 1.422,-0.604 3.034,-0.579 4.416,0.065 4.46,0.085 4.505,0.106 4.549,0.128 7.03,1.35 8.208,4.269 7.275,6.928 L 3.93,16.458 C 3.234,18.443 3.124,20.574 3.611,22.621 L 7.898,40.619 -4.614,40.654 -7.712,20.852 c -0.294,-1.878 -0.121,-3.822 0.499,-5.62 L -3.109,3.331 C -2.592,1.833 -1.459,0.619 0,0" style="fill:#ff86bf;fill-opacity:1;fill-rule:nonzero;stroke:none" id="path182"/>
      </g>
      <g id="g184" transform="translate(146.3031,169.4317)">
        <path d="m 0,0 c 1.582,-1.439 3.675,-2.027 5.744,-1.61 0.153,0.031 0.301,0.066 0.447,0.105 2.74,0.732 4.715,3.167 4.922,6.059 0.296,4.155 1.162,8.228 1.428,9.414 6.881,7.74 6.105,11.074 5.339,15.591 -0.847,4.996 -3.419,8.093 -3.528,8.223 l -0.51,0.605 -0.783,-0.114 C 10.533,37.908 8.275,37.156 6.317,36.04 3.548,34.46 1.373,32.514 -0.039,29.621 -1.963,25.68 -1.831,21.522 -1.882,17.253 -1.927,13.45 -1.817,9.589 -2.215,5.802 -2.441,3.638 -1.613,1.469 0,0" style="fill:#ffb3e2;fill-opacity:1;fill-rule:nonzero;stroke:none" id="path186"/>
      </g>
      <g id="g188" transform="translate(160.2913,207.6226)">
        <path d="m 0,0 c 0,0 6.773,-16.646 -18.951,-27.258 0,0 -1.932,-10.477 -2.379,-19.631 -0.108,-2.221 -2.103,-4.645 -4.204,-5.374 -0.02,-0.007 -0.041,-0.014 -0.062,-0.021 -3.885,-1.315 -7.869,1.808 -7.69,5.905 0.251,5.774 0.31,13.492 0.687,20.672 0.083,1.582 0.474,3.132 1.123,4.578 3.371,7.496 4.343,9.881 6.764,15.28 2.992,6.672 10.026,10.824 17.247,9.671 C -4.767,3.391 -2.121,2.276 0,0" style="fill:#ffb3e2;fill-opacity:1;fill-rule:nonzero;stroke:none" id="path190"/>
      </g>
      <g id="g192" transform="translate(180.2307,234.3423)">
        <path d="m 0,0 -14.46,-36.69 -0.48,-1.26 -0.62,-1.6 v -0.02 c -0.02,-1.67 -0.4,-3.45 -1.6,-5.65 -15.69,1.49 -25.85,9.99 -27.57,12.47 0.02,0.05 0.05,0.12 0.08,0.19 0.86,1.9 2.03,3.6 3.46,5.02 l 0.02,0.02 13.22,39.16 C -21.45,10.04 -11.55,6.75 0,0" style="fill:#ff61ac;fill-opacity:1;fill-rule:nonzero;stroke:none" id="path194"/>
      </g>
      <g id="g196" transform="translate(203.55,315.67)">
        <path d="m 0,0 -5.11,-36.23 -2.8,-19.81 -1.6,-11.35 -0.06,-0.14 -2.2,-5.05 -21.379,-51.398 c -26.84,-0.14 -38.16,18.28 -38.16,18.28 l 36.059,79.308 c 1.41,3.07 3.31,6.08 5.57,8.89 6.42,7.96 15.35,13.51 25.2,16.26 z" style="fill:#ffffff;fill-opacity:1;fill-rule:nonzero;stroke:none" id="path198"/>
      </g>
      <g id="g200" transform="translate(198.46,279.12)">
        <path d="m 0,0 -2.82,-19.49 -1.66,-11.49 -2.2,-5.05 5.1,36.25 c 0.06,0.4 0.4,0.69 0.79,0.69 0.38,0 0.68,-0.25 0.77,-0.59 C 0.01,0.22 0.02,0.11 0,0" style="fill:#a7bfff;fill-opacity:1;fill-rule:nonzero;stroke:none" id="path202"/>
      </g>
      <g id="g204" transform="translate(307.49,288.61)">
        <path d="m 0,0 c 0.84,-7.46 3.12,-45.28 -34.49,-56.71 -20.42,-5.8 -44.19,0.77 -56.73,23.66 -0.74,1.33 -1.33,2.55 -1.79,3.59 -1.89,4.21 -4.27,8.2 -7.36,11.63 -17.63,19.57 -40.35,14.96 -40.35,14.96 1.11,3.22 2.37,6.16 3.72,8.84 0.53,1.08 1.08,2.11 1.65,3.1 7.63,13.42 16.97,19.05 16.97,19.05 -0.58,0.2 -1.13,0.4 -1.68,0.62 -14.7,5.72 -23.65,20.59 -22.83,36.33 0.8,15.73 4.68,32.61 7.98,44.56 7.83,28.24 34.35,47.43 63.57,45.22 4.8,-0.36 7.74,-1.14 7.74,-1.14 59.79,6.78 56.48,-60.82 56.48,-60.82 l -4.29,-44.45 c -0.11,-8.17 -3.07,-11.34 -3.07,-11.34 2.22,0.03 5.01,-0.23 8.08,-0.72 0.99,-0.15 2.01,-0.33 3.05,-0.53 2.58,-0.51 5.28,-1.14 7.96,-1.86 0,0 -5.69,-12.25 -4.9,-30.62 C -0.24,2.24 -0.13,1.12 0,0" style="fill:#f83582;fill-opacity:1;fill-rule:nonzero;stroke:none" id="path206"/>
      </g>
      <g id="g208" transform="translate(299.15,292.67)">
        <path d="m 0,0 c 0.16,-2.86 0.2,-5.25 0.12,-7.54 -0.28,-8.48 -1.81,-16.13 -4.53,-22.73 -6.02,-14.6 -20.21,-23.6 -34.92,-23.6 -4.31,0 -8.65,0.77 -12.85,2.4 -13.83,5.35 -20.78,17.3 -23.69,23.96 -1.86,4.24 -4.11,7.97 -6.69,11.08 -15.8,19.06 -38.63,18.96 -46.1,18.34 0.53,1.08 1.08,2.11 1.65,3.1 9.43,0.44 31.26,-0.84 46.76,-19.53 2.76,-3.33 5.16,-7.29 7.13,-11.79 2.72,-6.22 9.21,-17.41 22.02,-22.36 17.05,-6.6 36.75,2.17 43.92,19.55 2.58,6.26 4.03,13.56 4.3,21.68 0.08,2.2 0.04,4.51 -0.11,7.27 -0.33,6.01 -0.44,20.5 4.93,32.49 C 2.93,32.17 3.95,31.99 4.99,31.79 -0.59,19.9 -0.25,4.61 0,0" style="fill:#ff61ac;fill-opacity:1;fill-rule:nonzero;stroke:none" id="path210"/>
      </g>
      <g id="g212" transform="translate(217.7561,429.9153)">
        <path d="m 0,0 c 4.084,-5.146 0.186,-15.04 -8.707,-22.098 -8.893,-7.059 -19.413,-8.609 -23.498,-3.463 -4.084,5.146 -0.186,15.039 8.707,22.098 C -14.605,3.596 -4.084,5.146 0,0" style="fill:#ff3787;fill-opacity:1;fill-rule:nonzero;stroke:none" id="path214"/>
      </g>
      <g id="g216" transform="translate(189.1102,316.7318)">
        <path d="m 0,0 c 0,0 8.709,-3.116 16.632,-4.234 0.475,-0.067 0.828,-0.467 0.828,-0.947 0,-0.57 -0.487,-1.015 -1.053,-0.954 -2.792,0.296 -9.882,1.436 -17.982,5.048 0,0 0.177,0.19 1.575,1.087" style="fill:#ca1e63;fill-opacity:1;fill-rule:nonzero;stroke:none" id="path218"/>
      </g>
      <g id="g220" transform="translate(293.0059,325.7052)">
        <path d="m 0,0 c 0,0 -2.969,-3.495 -6.941,-4.764 -0.528,-0.169 -0.75,-0.79 -0.445,-1.252 0.199,-0.302 0.562,-0.444 0.911,-0.35 1.587,0.429 6,1.976 8.358,6.366 z" style="fill:#ca1e63;fill-opacity:1;fill-rule:nonzero;stroke:none" id="path222"/>
      </g>
      <g id="g224" transform="translate(304.9321,358.1172)">
        <path d="m 0,0 -0.466,6.682 c 0,0 -0.012,0.335 -0.07,0.967 -0.49,5.727 -3.964,35.443 -24.717,50.295 -6.086,4.376 -13.664,7.45 -23.096,8.269 0,0 -13.256,1.574 -27.713,-6.794 l -0.011,-0.012 C -88.723,52.068 -102.655,37.08 -108.998,6.682 L -109.464,0 c -0.863,-12.533 6.482,-24.038 17.745,-27.844 9.49,-3.186 22.116,-6.049 36.981,-6.049 14.877,0 27.515,2.863 37.005,6.049 C -6.471,-24.038 0.874,-12.533 0,0" style="fill:#ffb3e2;fill-opacity:1;fill-rule:nonzero;stroke:none" id="path226"/>
      </g>
      <g id="g228" transform="translate(303.9087,369.9421)">
        <path d="m 0,0 c -9.105,46.416 -44.108,48.639 -44.108,48.639 -49.527,3.077 -63.058,-50.385 -63.834,-53.637 6.353,30.303 20.272,45.248 32.893,52.582 l 0.012,0.012 c 14.452,8.364 27.716,6.795 27.716,6.795 9.433,-0.817 17.011,-3.894 23.097,-8.276 C -6.656,33.544 -1.467,10.31 0,0" style="fill:#ff61ac;fill-opacity:1;fill-rule:nonzero;stroke:none" id="path230"/>
      </g>
      <g id="g232" transform="translate(267.7761,361.9694)">
        <path d="m 0,0 c 0,-2.969 -2.407,-5.376 -5.376,-5.376 -2.969,0 -5.376,2.407 -5.376,5.376 0,2.969 2.407,5.376 5.376,5.376 C -2.407,5.376 0,2.969 0,0" style="fill:#ff61ac;fill-opacity:1;fill-rule:nonzero;stroke:none" id="path234"/>
      </g>
      <g id="g236" transform="translate(265.8856,362.7712)">
        <path d="m 0,0 c 0,-1.679 -1.362,-3.041 -3.041,-3.041 -1.679,0 -3.041,1.362 -3.041,3.041 0,1.68 1.362,3.041 3.041,3.041 C -1.362,3.041 0,1.68 0,0" style="fill:#ff86bf;fill-opacity:1;fill-rule:nonzero;stroke:none" id="path238"/>
      </g>
      <g id="g240" transform="translate(267.2997,359.8033)">
        <path d="m 0,0 c 0.3,0.669 0.465,1.395 0.465,2.17 0,2.966 -2.413,5.369 -5.378,5.369 -1.705,0 -3.227,-0.795 -4.206,-2.035 0.747,2.112 2.753,3.614 5.117,3.614 3.004,0 5.446,-2.432 5.446,-5.436 C 1.444,2.267 0.901,0.969 0,0" style="fill:#581938;fill-opacity:1;fill-rule:nonzero;stroke:none" id="path242"/>
      </g>
      <g id="g244" transform="translate(242.1284,370.7371)">
        <path d="m 0,0 c 0,-6.293 -4.476,-11.395 -9.997,-11.395 -5.521,0 -9.997,5.102 -9.997,11.395 0,6.293 4.476,11.395 9.997,11.395 C -4.476,11.395 0,6.293 0,0" style="fill:#581938;fill-opacity:1;fill-rule:nonzero;stroke:none" id="path246"/>
      </g>
      <g id="g248" transform="translate(239.3999,374.8374)">
        <path d="m 0,0 c 0,-2.007 -1.627,-3.634 -3.634,-3.634 -2.007,0 -3.634,1.627 -3.634,3.634 0,2.007 1.627,3.634 3.634,3.634 C -1.627,3.634 0,2.007 0,0" style="fill:#ffffff;fill-opacity:1;fill-rule:nonzero;stroke:none" id="path250"/>
      </g>
      <g id="g252" transform="translate(221.2852,384.6606)">
        <path d="m 0,0 c 1.957,1.631 5.223,3.555 10.253,4.341 2.25,0.351 3.696,2.569 3.033,4.746 -0.532,1.746 -2.25,2.839 -4.058,2.59 C 5.771,11.201 0.152,9.626 -4.406,4.557 -5.395,3.457 -5.516,1.824 -4.676,0.606 -3.606,-0.946 -1.448,-1.207 0,0" style="fill:#581938;fill-opacity:1;fill-rule:nonzero;stroke:none" id="path254"/>
      </g>
      <g id="g256" transform="translate(211.773,361.2116)">
        <path d="m 0,0 c 0,-3.277 3.854,-5.934 8.607,-5.934 4.754,0 8.608,2.657 8.608,5.934 0,3.277 -3.854,5.934 -8.608,5.934 C 3.854,5.934 0,3.277 0,0" style="fill:#ff86bf;fill-opacity:1;fill-rule:nonzero;stroke:none" id="path258"/>
      </g>
      <g id="g260" transform="translate(216.0403,358.1192)">
        <path d="M 0,0 V 0 C -0.563,0.243 -0.823,0.896 -0.58,1.46 L 1.206,5.604 C 1.449,6.168 2.103,6.427 2.666,6.185 3.229,5.942 3.489,5.288 3.246,4.725 L 1.46,0.58 C 1.217,0.017 0.563,-0.243 0,0" style="fill:#ff61ac;fill-opacity:1;fill-rule:nonzero;stroke:none" id="path262"/>
      </g>
      <g id="g264" transform="translate(222.0547,358.1192)">
        <path d="M 0,0 V 0 C -0.563,0.243 -0.823,0.896 -0.58,1.46 L 1.206,5.604 C 1.449,6.168 2.103,6.427 2.666,6.185 3.229,5.942 3.489,5.288 3.246,4.725 L 1.46,0.58 C 1.217,0.017 0.563,-0.243 0,0" style="fill:#ff61ac;fill-opacity:1;fill-rule:nonzero;stroke:none" id="path266"/>
      </g>
      <g id="g268" transform="translate(275.1594,371.2725)">
        <path d="m 0,0 c 0,-5.756 4.094,-10.423 9.144,-10.423 5.05,0 9.144,4.667 9.144,10.423 0,5.757 -4.094,10.423 -9.144,10.423 C 4.094,10.423 0,5.757 0,0" style="fill:#581938;fill-opacity:1;fill-rule:nonzero;stroke:none" id="path270"/>
      </g>
      <g id="g272" transform="translate(277.6552,375.023)">
        <path d="M 0,0 C 0,-1.836 1.488,-3.324 3.324,-3.324 5.16,-3.324 6.648,-1.836 6.648,0 6.648,1.836 5.16,3.324 3.324,3.324 1.488,3.324 0,1.836 0,0" style="fill:#ffffff;fill-opacity:1;fill-rule:nonzero;stroke:none" id="path274"/>
      </g>
      <g id="g276" transform="translate(291.6187,386.6381)">
        <path d="m 0,0 c -1.626,1.355 -4.341,2.955 -8.522,3.608 -1.87,0.292 -3.072,2.135 -2.521,3.945 0.442,1.451 1.87,2.36 3.373,2.153 C -4.796,9.31 -0.127,8.001 3.662,3.788 4.484,2.873 4.585,1.516 3.887,0.504 2.997,-0.786 1.204,-1.003 0,0" style="fill:#581938;fill-opacity:1;fill-rule:nonzero;stroke:none" id="path278"/>
      </g>
      <g id="g280" transform="translate(302.9252,362.5596)">
        <path d="m 0,0 c 0,-2.998 -3.525,-5.428 -7.873,-5.428 -4.348,0 -7.873,2.43 -7.873,5.428 0,2.998 3.525,5.428 7.873,5.428 C -3.525,5.428 0,2.998 0,0" style="fill:#ff86bf;fill-opacity:1;fill-rule:nonzero;stroke:none" id="path282"/>
      </g>
      <g id="g284" transform="translate(299.0219,359.731)">
        <path d="M 0,0 V 0 C 0.515,0.222 0.753,0.82 0.531,1.335 L -1.103,5.126 C -1.326,5.642 -1.923,5.879 -2.438,5.657 -2.954,5.435 -3.191,4.837 -2.969,4.322 L -1.335,0.531 C -1.113,0.016 -0.515,-0.222 0,0" style="fill:#ff61ac;fill-opacity:1;fill-rule:nonzero;stroke:none" id="path286"/>
      </g>
      <g id="g288" transform="translate(293.5206,359.731)">
        <path d="M 0,0 V 0 C 0.515,0.222 0.753,0.82 0.531,1.335 L -1.103,5.126 C -1.326,5.642 -1.923,5.879 -2.438,5.657 -2.954,5.435 -3.191,4.837 -2.969,4.322 L -1.335,0.531 C -1.113,0.016 -0.515,-0.222 0,0" style="fill:#ff61ac;fill-opacity:1;fill-rule:nonzero;stroke:none" id="path290"/>
      </g>
      <g id="g292" transform="translate(247.2947,351.9436)">
        <path d="M 0,0 C 0,0 5.145,-7.36 18.591,-4.185 18.591,-4.185 4.618,-12.266 0,0" style="fill:#581938;fill-opacity:1;fill-rule:nonzero;stroke:none" id="path294"/>
      </g>
    </g>
  </g>
  <text style="white-space: pre; fill: rgb(51, 51, 51); font-family: Arial, sans-serif; font-size: 31.6px;" x="95.764" y="228.938"> </text>
  <text style="fill: rgb(255, 255, 255); font-family: Arial, sans-serif; font-size: 31.6px; font-weight: 700; white-space: pre;" x="103.083" y="251.186">Aqsa</text>
</svg>